PathFileType	4	(X/Y/Z)	/Users/niels/Desktop/University/Third Semester/Perception and Action/Exam/Gymnastics Motion Tracking/Code for Gym Tracking/Analyzed Data/Webcam_Backflip/id19_1_trajectory_Sports2D/id19_1_trajectory_Sports2D_px_person00.trc
DataRate	CameraRate	NumFrames	NumMarkers	Units	OrigDataRate	OrigDataStartFrame	OrigNumFrames
29.702970297029704	29.702970297029704	9	22	m	29.702970297029704	0	101
Frame#	Time	Hip			RHip			RKnee			RAnkle			RBigToe			RSmallToe			RHeel			LHip			LKnee			LAnkle			LBigToe			LSmallToe			LHeel			Neck			Head			Nose			RShoulder			RElbow			RWrist			LShoulder			LElbow			LWrist		
		X1	Y1	Z1	X2	Y2	Z2	X3	Y3	Z3	X4	Y4	Z4	X5	Y5	Z5	X6	Y6	Z6	X7	Y7	Z7	X8	Y8	Z8	X9	Y9	Z9	X10	Y10	Z10	X11	Y11	Z11	X12	Y12	Z12	X13	Y13	Z13	X14	Y14	Z14	X15	Y15	Z15	X16	Y16	Z16	X17	Y17	Z17	X18	Y18	Z18	X19	Y19	Z19	X20	Y20	Z20	X21	Y21	Z21	X22	Y22	Z22
0	0.0	0.9430311521683832	-0.6597489679557487	0.0	0.9414288966161714	-0.6613537630528463	0.0	0.9478294024707508	-0.7591216727044457	0.0	0.9366039714212591	-0.8616969646986241	0.0	0.9766711727205876	-0.8777255914089628	0.0	0.9670548246144354	-0.8809282285022835	0.0	0.9253928892012782	-0.8729149176664064	0.0	0.9446238178158467	-0.6597491375304049	0.0	0.9494313827781615	-0.7591267148574383	0.0	0.9382107929304953	-0.858497875603081	0.0	0.9718725307074306	-0.874527368331334	0.0	0.9702706083128003	-0.8713178810823017	0.0	0.9253926139531367	-0.8681119550462246	0.0	0.9638734098126025	-0.5234714273660709	0.0	0.9863428356027307	-0.45936066359499755	0.0	0.992741882811122	-0.48981082270277443	0.0	0.9574651215056718	-0.5282811665630056	0.0	1.0215119074832029	-0.49939894010038655	0.0	1.0646975841679531	-0.4577188217811541	0.0	0.9670504193332843	-0.529882689554293	0.0	1.0198770399563752	-0.49941870192724513	0.0	1.0663035479280394	-0.4577211206165815	0.0
1	0.033666666666666664	0.9415840434654507	-0.6575968657772254	0.0	0.939717492708993	-0.6576634321405407	0.0	0.9471113075396692	-0.7574680672270049	0.0	0.9356776752378512	-0.8589166842698659	0.0	0.9744210084396655	-0.8763726324401939	0.0	0.964358701447794	-0.8797802425708564	0.0	0.9243476474167267	-0.8709351096649857	0.0	0.9441754689015216	-0.6563810727746656	0.0	0.9495386528245686	-0.7574223596380858	0.0	0.9389010707114496	-0.8551649269479119	0.0	0.9720505527357983	-0.872455333733502	0.0	0.9707582530728035	-0.86923341775724	0.0	0.9271052972080466	-0.86617792823601	0.0	0.9638926942633558	-0.5226313404257864	0.0	0.9875693082516495	-0.4582734584179434	0.0	0.9937818860565739	-0.49087003575200655	0.0	0.9581415005271429	-0.5267925539955791	0.0	1.0254257974923717	-0.5061833501289683	0.0	1.0734326194596222	-0.46923128138938786	0.0	0.9652061046876136	-0.5285971100855026	0.0	1.0218438030481298	-0.507461319977479	0.0	1.0730090062449935	-0.4720093910152603	0.0
2	0.06733333333333333	0.9402825432852835	-0.6564316159745148	0.0	0.9384172216386165	-0.6551162039367723	0.0	0.9465798525579898	-0.7565706803072549	0.0	0.9349517060360043	-0.8572209831452073	0.0	0.9728261672683247	-0.8755612214824728	0.0	0.96247809336835	-0.8792131684972851	0.0	0.9235608221051745	-0.8698429072412587	0.0	0.9434429711479607	-0.6539913806683187	0.0	0.9493830884202284	-0.7565734254941232	0.0	0.9393131786850117	-0.8530166505805864	0.0	0.972316995698394	-0.8711582313700681	0.0	0.9712207280050613	-0.867988917043531	0.0	0.9284135591571185	-0.8651309943317479	0.0	0.9638230101725863	-0.5224018766885682	0.0	0.9883367894281783	-0.45747158843321245	0.0	0.9947490350901858	-0.4921506471009641	0.0	0.9588616639958266	-0.5261447216671675	0.0	1.0283877691940142	-0.5142547554430767	0.0	1.0808751045827685	-0.4831087361417535	0.0	0.9632129816721609	-0.5278563370259319	0.0	1.0231257473595334	-0.5163344366703287	0.0	1.0785073059890682	-0.48769680299362145	0.0
3	0.10099999999999999	0.9392687706072712	-0.6570185656269738	0.0	0.9377557349611239	-0.6546196535077038	0.0	0.946292214922325	-0.75712959075046	0.0	0.9344967859517598	-0.8573475762326012	0.0	0.9721058185823382	-0.8757966237077506	0.0	0.9616976466301673	-0.8797213782698534	0.0	0.9231724761614555	-0.8702404983203592	0.0	0.9424524688750878	-0.6534474334671018	0.0	0.9488693850254833	-0.7572413549077187	0.0	0.9393308675569038	-0.8528290990851992	0.0	0.9726542929941705	-0.8711965195194833	0.0	0.9715565504491136	-0.8681438135786833	0.0	0.929084226755963	-0.8655905102406003	0.0	0.9636096617905424	-0.5233368937929561	0.0	0.9882681924823108	-0.4573996802795739	0.0	0.9954421539363212	-0.4939977154812165	0.0	0.959557751975729	-0.5271097548715424	0.0	1.0297112378991915	-0.5245746697445378	0.0	1.0859534550274856	-0.501010801416066	0.0	0.9611785659708755	-0.5283538689548098	0.0	1.0233043076332298	-0.5267307823945877	0.0	1.0819974025187522	-0.5058439813511886	0.0
4	0.13466666666666666	0.938648330133428	-0.6597087866347728	0.0	0.9377160427534402	-0.6566268791585278	0.0	0.9461674675956319	-0.7596100279163582	0.0	0.9342599499543163	-0.8595291287343844	0.0	0.9720311986386508	-0.8774205593361769	0.0	0.961767011509555	-0.8815980653778556	0.0	0.9231959439214659	-0.8723315517501568	0.0	0.9415599005001513	-0.6552848858423164	0.0	0.9481188838660054	-0.7597575947987776	0.0	0.9390074103611675	-0.8548431357627589	0.0	0.9729310964311068	-0.8728545816655129	0.0	0.9715988204160391	-0.8699480081992437	0.0	0.9291440860814602	-0.8678148960854478	0.0	0.9632505591969402	-0.5258005336710488	0.0	0.987175133073516	-0.45857440102579383	0.0	0.9955967668919758	-0.4967952117186895	0.0	0.9600519524587336	-0.530189683624494	0.0	1.02907458275835	-0.53754040923295	0.0	1.0880433877826599	-0.5234307301998014	0.0	0.9594063559178198	-0.5307225236023712	0.0	1.0222832004227427	-0.5390531659825816	0.0	1.0831860430242233	-0.526934424620034	0.0
5	0.16833333333333333	0.9384700661738016	-0.6644789114431442	0.0	0.9381517336850833	-0.6611484046586309	0.0	0.946090407790485	-0.7641306259334258	0.0	0.9341469311752605	-0.8636455527860428	0.0	0.9721889980908331	-0.8805599567830424	0.0	0.9622564261473324	-0.8849518983060511	0.0	0.9235602253371279	-0.8760875043933738	0.0	0.9411480237199461	-0.6596335249822245	0.0	0.9473268248881923	-0.7641633339747164	0.0	0.9384551994863509	-0.8589583838945726	0.0	0.9729703911717351	-0.8762305893797208	0.0	0.9711659418977634	-0.8734885814211454	0.0	0.9287769856836482	-0.8718270346151228	0.0	0.9627801664893867	-0.5299006305477685	0.0	0.9851414329140828	-0.46139782115493444	0.0	0.9950615962139812	-0.5008126232973933	0.0	0.9601674521485686	-0.5355146157997753	0.0	1.0263727862633425	-0.5530294294587427	0.0	1.0868517369007569	-0.549824136233191	0.0	0.9581406914284455	-0.5352825722373572	0.0	1.02006669430832	-0.5534399227240515	0.0	1.0819030451832665	-0.5510010743906809	0.0
6	0.20199999999999999	0.9387293684163865	-0.6710611857194917	0.0	0.938914961575679	-0.6678869251580256	0.0	0.9459806158294957	-0.7704662753725048	0.0	0.9340746286140125	-0.869431299343653	0.0	0.9722457935492658	-0.885161723915569	0.0	0.9628513064425769	-0.8897725249283509	0.0	0.9241249890069084	-0.8814144948357113	0.0	0.9413520195189311	-0.6662686783627537	0.0	0.9466187157273028	-0.7702627931215726	0.0	0.9377896485028454	-0.8649009625536285	0.0	0.9726497631300726	-0.8812353460970336	0.0	0.9701477902273913	-0.8786953689957201	0.0	0.9281564847856798	-0.8775005051532011	0.0	0.9622602984172387	-0.5354745372589088	0.0	0.9824763606819181	-0.4659833127906263	0.0	0.9939134375618524	-0.5060661780774655	0.0	0.9598413380886067	-0.5428491699832629	0.0	1.0216147660550636	-0.5705057122942805	0.0	1.0822486688841895	-0.5789736984851047	0.0	0.9574272970216396	-0.541933660081553	0.0	1.0166197018404688	-0.5696807293588141	0.0	1.0778203103414867	-0.5776511098804171	0.0
7	0.23566666666666664	0.9393817883153983	-0.6790554462039697	0.0	0.9398831806606796	-0.6763718277864532	0.0	0.9457791345388239	-0.7781551275322122	0.0	0.9339916223726303	-0.8765554866015531	0.0	0.9720490482785986	-0.8910481146191005	0.0	0.963402818664903	-0.8959207672645633	0.0	0.9247074114520825	-0.8881618660326672	0.0	0.9420903467441647	-0.6747274052752741	0.0	0.9460616659463614	-0.7776442383549589	0.0	0.9371383622886189	-0.8722552594716702	0.0	0.972001473180905	-0.8875446323751008	0.0	0.9686164374014669	-0.8852692456947485	0.0	0.9273947246010661	-0.8845504191560476	0.0	0.961810790520659	-0.5421358116648293	0.0	0.9796000783315906	-0.4721127903686581	0.0	0.9924679917063794	-0.5122988552049916	0.0	0.9591340317151397	-0.5516578719220363	0.0	1.0148883265803075	-0.5891577988876331	0.0	1.0741270023006346	-0.6094215507232534	0.0	0.9572312343585296	-0.5502063209805059	0.0	1.0119124194144296	-0.5870991014090835	0.0	1.0705012178760318	-0.606006051334563	0.0
8	0.2693333333333333	0.940355485738974	-0.6879753757374637	0.0	0.9409629405233622	-0.6860032870443618	0.0	0.9454571332165447	-0.7865919481322534	0.0	0.9338834262816658	-0.8845333200088528	0.0	0.9715180307855282	-0.8978670058686722	0.0	0.9637816298093467	-0.9030005484650659	0.0	0.925163497326106	-0.8959625050199893	0.0	0.943204673119919	-0.684401793313999	0.0	0.9457082381629415	-0.7857212399940463	0.0	0.9366120520941661	-0.8804204762948628	0.0	0.9711972498783644	-0.894613697588134	0.0	0.9668306763176387	-0.892662809789472	0.0	0.9265798252717565	-0.8924628161698022	0.0	0.9616065706791695	-0.5493761432574831	0.0	0.9770054914825345	-0.47932133697552803	0.0	0.9911897612303927	-0.5190831761217645	0.0	0.9581864587818305	-0.5612089956946698	0.0	1.0063267132053753	-0.6079759690804224	0.0	1.0623012067073152	-0.6396645437210001	0.0	0.9575627386086972	-0.5593930826789003	0.0	1.0059249753530106	-0.6046418348231801	0.0	1.059582212277458	-0.6347240882485854	0.0
